# xmcd
#
# Track frame offsets:
# 150
# 3590
# 25056
# 44377
# 62112
# 83927
# 106514
# 128702
# 146088
# 163376
# 185280
# 211930
# 227489
# 242973
# 260448
# 275427
# 298654
# 320914
# 339211
#
# Disc length: 4704 seconds
#
#
# Revision: 0
# Processed by: cddbd v1.5.2PL0 Copyright (c) Steve Scherf et al.
# Submitted via: FreeRIP 2.945 
#
DISCID=14125e13
DTITLE=Aviões do forro - Ao vivo no trio eletrico
DYEAR=2006
DGENRE=Forró
TTITLE0=Abertura
TTITLE1=Obsessão
TTITLE2=Você não vale nada
TTITLE3=Pra me conquistar
TTITLE4=Eu não vou mais chorar
TTITLE5=O que tem que ser será
TTITLE6=Sem querer
TTITLE7=Swing louco
TTITLE8=Tic tic bum
TTITLE9=Ficar
TTITLE10=Se você quiser vai ser assim
TTITLE11=Darundarundê
TTITLE12=Pagina virada
TTITLE13=Vixe mainha
TTITLE14=Vou já
TTITLE15=Bla Bla Bla
TTITLE16=Internauta do amor
TTITLE17=ai ai ai
TTITLE18=Risca faca
EXTD=
EXTT0=
EXTT1=
EXTT2=
EXTT3=
EXTT4=
EXTT5=
EXTT6=
EXTT7=
EXTT8=
EXTT9=
EXTT10=
EXTT11=
EXTT12=
EXTT13=
EXTT14=
EXTT15=
EXTT16=
EXTT17=
EXTT18=
PLAYORDER=
